<svg version="1.1" id="Layer_1" xmlns="http://www.w3.org/2000/svg" xmlns:xlink="http://www.w3.org/1999/xlink" x="0px" y="0px"
	 width="100%" viewBox="0 0 1024 1024" enable-background="new 0 0 1024 1024" xml:space="preserve">
<path fill="#000000" opacity="1.000000" stroke="none" 
	d="
M543.690918,474.804504 
	C540.824768,477.091888 540.113586,479.783691 540.211304,483.005432 
	C540.377930,488.497284 540.105713,494.002686 540.282654,499.493866 
	C540.401978,503.195831 538.906860,504.514191 535.263733,504.397980 
	C528.939758,504.196259 522.603638,504.237122 516.275940,504.354584 
	C513.451111,504.406982 512.321472,503.327454 512.556274,500.526672 
	C512.708862,498.706482 512.569885,496.863586 512.611206,495.031982 
	C512.742249,489.231995 511.369995,487.165131 519.561340,487.686279 
	C522.579468,487.878326 524.058655,486.368408 523.595032,483.481628 
	C522.133423,474.381104 525.266418,467.308441 532.592407,461.894928 
	C533.333679,461.347137 533.749817,460.359131 534.290039,459.612488 
	C533.946594,458.973633 533.819885,458.403442 533.464661,458.126495 
	C525.866638,452.204071 521.830811,444.849213 523.508789,434.881653 
	C524.067017,431.565186 521.494568,431.009094 518.953735,431.316833 
	C514.131531,431.900787 512.184570,430.503632 512.483521,425.098175 
	C513.127991,413.444061 511.047638,414.929932 523.051636,414.768799 
	C527.215393,414.712921 531.383545,414.856567 535.544006,414.726746 
	C538.908569,414.621765 540.387268,415.916321 540.289001,419.415894 
	C540.120728,425.407990 540.353821,431.411011 540.203613,437.404083 
	C540.135132,440.133636 541.029846,442.149078 542.982788,444.004425 
	C547.205811,448.016541 551.199097,452.271790 555.449219,456.253754 
	C558.178650,458.810974 557.920410,460.828491 555.289673,463.273926 
	C551.388489,466.900299 547.717590,470.774567 543.690918,474.804504 
z"/>
<path fill="#000000" opacity="1.000000" stroke="none" 
	d="
M477.906830,424.834656 
	C478.286469,429.683319 476.632446,431.926849 471.898865,431.295105 
	C468.456360,430.835663 466.967896,432.590240 467.240723,435.976257 
	C467.280701,436.472656 467.162140,436.989838 467.250122,437.473175 
	C468.620758,445.006042 465.678101,450.695923 459.765686,455.143433 
	C456.090240,457.908264 455.318085,460.732880 459.556030,463.737885 
	C465.991486,468.301056 468.577545,474.466003 467.283142,482.298431 
	C466.618073,486.322906 468.312256,488.281708 472.536591,487.724792 
	C476.775116,487.166016 478.021698,489.305542 477.984314,493.265137 
	C477.854156,507.052521 478.230713,504.033875 467.111206,504.343353 
	C463.281769,504.449951 459.420227,504.091248 455.622253,504.455322 
	C451.433624,504.856781 450.216675,503.035492 450.668915,499.280640 
	C450.748016,498.623840 450.569855,497.928314 450.692932,497.285614 
	C453.354309,483.385956 447.958710,473.087982 437.088898,464.607452 
	C431.354523,460.133514 431.358337,459.001312 436.861603,454.794678 
	C448.000824,446.280182 452.905548,435.820801 450.860779,421.687714 
	C449.879456,414.904877 450.708221,414.784241 457.602356,414.768524 
	C462.101074,414.758240 466.599823,414.737762 471.098511,414.744690 
	C477.725342,414.754913 477.884216,414.916718 477.922668,421.373444 
	C477.928619,422.373108 477.917236,423.372894 477.906830,424.834656 
z"/>
<path fill="#000000" opacity="1.000000" stroke="none" 
	d="
M395.632385,545.944214 
	C401.022766,547.650391 403.214691,551.463867 403.210297,556.326477 
	C403.194580,573.729614 405.704926,570.829163 389.584686,571.046326 
	C375.760162,571.232605 361.930389,571.124329 348.104095,571.006897 
	C344.821198,570.979004 342.591339,571.436157 341.328796,575.148926 
	C339.757538,579.769531 335.981476,582.265259 330.943420,582.318298 
	C325.113739,582.379700 319.273956,582.536133 313.454468,582.284119 
	C303.069122,581.834412 297.162262,572.040894 301.188934,562.417603 
	C302.313873,559.729065 304.318512,560.530945 306.230469,560.719238 
	C308.311859,560.924316 309.082977,562.086914 308.737427,564.157959 
	C308.464325,565.794922 308.317444,567.459045 308.216492,569.117371 
	C307.980347,572.995667 310.117737,575.300720 313.698639,575.538330 
	C319.169769,575.901367 324.682617,575.736450 330.174622,575.630981 
	C332.153717,575.592957 333.567047,574.419495 334.139496,572.274902 
	C332.860962,570.396057 330.627380,570.839539 328.854156,570.178772 
	C327.202271,569.563232 324.756409,569.251892 325.531738,566.767395 
	C326.151001,564.783020 327.477997,562.895264 330.271759,563.244812 
	C339.063507,564.344604 347.901062,563.555603 356.715668,563.773132 
	C359.245117,563.835571 361.901825,564.076050 361.906677,560.215637 
	C361.911133,556.697327 361.761963,553.230103 357.448608,552.480591 
	C355.030457,552.060425 352.474854,552.385071 349.983215,552.451416 
	C348.449982,552.492188 347.360779,551.994873 347.046814,550.405884 
	C346.749908,548.903076 346.623901,547.472534 348.206238,546.429810 
	C353.602814,542.873779 365.710999,546.433472 368.429718,552.325012 
	C369.538666,554.728149 369.444489,557.217224 369.298767,559.681763 
	C369.090790,563.199524 370.959991,563.869690 373.928986,563.808716 
	C376.692535,563.751953 379.035858,563.570007 378.741577,559.877625 
	C378.649353,558.720337 378.720581,557.544922 378.783112,556.381287 
	C379.315399,546.480164 382.293365,544.044861 392.286957,545.335144 
	C393.277344,545.463013 394.257202,545.672485 395.632385,545.944214 
M386.440796,556.086487 
	C386.885040,558.743347 384.638000,562.407166 388.939911,563.642761 
	C394.229156,565.162109 396.715942,562.372803 395.597229,556.463684 
	C395.143494,554.067200 393.880432,552.589783 391.385101,552.262634 
	C388.927704,551.940613 387.106110,552.567322 386.440796,556.086487 
z"/>
<path fill="#000000" opacity="1.000000" stroke="none" 
	d="
M594.838684,561.502808 
	C594.752563,559.908325 594.668945,558.741577 594.700928,557.578064 
	C594.922119,549.538208 598.162781,545.868469 606.208008,545.584595 
	C620.391113,545.084412 618.903564,542.931458 618.883606,557.321472 
	C618.875488,563.202393 623.359985,565.974060 628.865112,563.492737 
	C630.579285,562.720093 630.665161,561.264709 630.677734,559.738831 
	C630.706543,556.240784 630.792542,552.740723 630.706665,549.245056 
	C630.639709,546.517944 631.843689,545.243958 634.539978,545.221069 
	C637.312866,545.197571 638.342346,546.600037 638.304688,549.277100 
	C638.222778,555.106323 638.188599,560.939636 638.319763,566.767151 
	C638.394043,570.066162 636.817261,571.264954 633.768311,571.162415 
	C632.270508,571.112000 630.761475,571.234375 629.272583,571.104980 
	C623.567078,570.609375 618.662109,570.660522 616.567688,577.889160 
	C615.483459,581.630859 611.139160,583.151367 607.091370,583.283020 
	C601.933167,583.450928 596.755493,583.539490 591.604309,583.290161 
	C582.679199,582.858154 577.687500,576.551758 579.003113,567.758179 
	C579.372009,565.292175 579.712708,562.821716 580.041992,560.349976 
	C580.435608,557.394653 582.102539,556.432007 584.950256,557.003601 
	C587.691772,557.553833 588.431091,559.155701 587.864563,561.734009 
	C587.329834,564.167297 586.862244,566.620972 586.501465,569.085632 
	C585.929199,572.994629 587.578186,576.013855 591.445679,576.425354 
	C596.379333,576.950256 601.425537,576.701477 606.401001,576.408508 
	C608.366333,576.292786 610.183228,575.069580 610.480835,571.953796 
	C604.505371,570.092346 596.482849,570.673035 594.838684,561.502808 
M605.209778,552.483887 
	C601.500183,555.897034 601.142395,561.640381 604.616333,563.240723 
	C606.288513,564.011047 608.552246,564.417480 609.753906,563.041687 
	C611.878784,560.608826 610.852966,557.369507 610.619263,554.506348 
	C610.382812,551.608826 607.890015,552.328491 605.209778,552.483887 
z"/>
<path fill="#000000" opacity="1.000000" stroke="none" 
	d="
M411.710083,553.130493 
	C411.714233,551.484070 411.728912,550.318787 411.722351,549.153625 
	C411.712341,547.381592 411.939636,545.728271 414.133301,545.442993 
	C416.108490,545.186218 417.911591,544.944092 419.267273,547.239990 
	C421.489624,551.003662 426.722992,551.096985 428.404755,547.356445 
	C429.457855,545.014160 431.009705,545.128784 432.809174,545.217834 
	C435.027649,545.327515 436.063019,546.674744 436.086029,548.824524 
	C436.121643,552.153076 436.214264,555.485229 436.103455,558.809937 
	C436.000580,561.895996 436.595062,563.873291 440.402893,563.869263 
	C443.968689,563.865479 445.067047,562.353455 445.011780,559.059326 
	C444.905640,552.735840 445.015198,546.408997 444.999847,540.083618 
	C444.993073,537.295898 445.382324,535.195740 449.094238,535.435242 
	C452.742004,535.670715 452.755890,537.752991 452.712189,540.538025 
	C452.579071,549.020081 452.529968,557.509399 452.744324,565.988342 
	C452.836334,569.628540 451.638611,571.215515 447.930054,571.101135 
	C443.107117,570.952332 438.274200,570.965820 433.449707,571.082092 
	C429.803040,571.169983 428.254669,569.606018 428.603577,565.968872 
	C428.745605,564.487732 428.573730,562.976501 428.543365,561.478943 
	C428.472870,557.996704 426.487793,557.098755 423.292511,557.097961 
	C419.720062,557.097107 419.220856,559.049500 419.306488,561.913879 
	C419.405945,565.239685 419.456757,568.580383 419.260010,571.898682 
	C418.884399,578.234802 414.191620,582.724182 408.349976,582.603821 
	C406.747498,582.570740 405.239471,582.380432 404.991272,580.439819 
	C404.756592,578.604736 404.556183,576.367798 406.963440,575.991638 
	C411.541779,575.276428 411.737000,572.107239 411.714844,568.593506 
	C411.683319,563.599792 411.709564,558.605652 411.710083,553.130493 
z"/>
<path fill="#000000" opacity="1.000000" stroke="none" 
	d="
M657.430481,554.855103 
	C657.438171,556.104431 657.415466,556.938171 657.464600,557.767639 
	C657.847595,564.228394 657.851868,564.228149 665.176331,563.251038 
	C665.339661,560.450317 665.476257,557.517212 665.689941,554.589722 
	C665.985535,550.540710 667.978455,547.507080 671.862732,546.359741 
	C676.511230,544.986694 681.373962,544.936279 686.203247,545.265930 
	C688.883850,545.448975 689.234009,547.378418 689.226196,549.548645 
	C689.206360,555.038940 689.095886,560.532959 689.260132,566.018372 
	C689.369934,569.683838 687.775757,571.128784 684.227112,571.090576 
	C677.240356,571.015320 670.249756,571.193481 663.265320,571.047119 
	C659.900208,570.976685 657.806091,571.623474 656.782471,575.436646 
	C655.545227,580.045532 651.802124,582.301453 647.021851,582.633606 
	C645.033020,582.771729 643.247925,582.456970 642.993347,580.018494 
	C642.792480,578.094238 643.007202,576.173889 645.435608,575.843323 
	C649.172791,575.334412 649.770752,572.727661 649.787903,569.687927 
	C649.825500,563.033081 649.916077,556.376709 649.808594,549.723755 
	C649.757385,546.550903 651.033264,545.112427 654.205505,545.177551 
	C657.577209,545.246887 657.830139,547.344849 657.575562,549.950806 
	C657.430420,551.436829 657.474487,552.941284 657.430481,554.855103 
M674.667603,553.148071 
	C672.041870,557.874451 672.467346,562.328186 675.785645,563.397095 
	C677.478333,563.942322 679.806824,564.485046 680.822937,562.696167 
	C682.429382,559.868286 682.235107,556.392944 681.122253,553.566406 
	C680.190063,551.199097 677.420349,552.252747 674.667603,553.148071 
z"/>
<path fill="#000000" opacity="1.000000" stroke="none" 
	d="
M522.499146,571.108765 
	C511.793457,569.573425 508.240509,565.810120 508.715942,556.843018 
	C509.071472,550.136780 512.373962,546.487000 519.010376,545.466125 
	C532.119690,543.449402 532.941650,544.137573 532.935181,557.134888 
	C532.933044,561.463135 533.107910,565.800903 532.883118,570.117676 
	C532.374634,579.879578 521.631042,586.129456 512.764038,581.957214 
	C511.362061,581.297607 510.790405,580.253967 511.022522,578.748840 
	C511.311615,576.874390 512.238098,575.729919 514.304443,575.737244 
	C516.631531,575.745483 519.053284,576.046448 521.257751,575.504150 
	C523.199158,575.026611 526.614746,574.173462 522.499146,571.108765 
M516.495605,556.045837 
	C516.412231,558.973450 515.691528,562.319519 519.480530,563.480469 
	C521.204590,564.008728 523.978394,564.604370 524.495605,562.025269 
	C525.110657,558.958374 526.369751,554.998108 523.472534,552.826965 
	C521.210327,551.131714 518.015564,551.832092 516.495605,556.045837 
z"/>
<path fill="#000000" opacity="1.000000" stroke="none" 
	d="
M557.767090,546.075317 
	C564.015442,544.639526 564.915771,545.323120 564.958130,551.214355 
	C564.992859,556.046509 564.846924,560.881348 564.950989,565.711304 
	C565.031006,569.424805 563.656616,571.408691 559.688416,571.084778 
	C558.199219,570.963196 556.678772,571.203003 555.193115,571.062073 
	C551.342712,570.696655 548.674927,571.388611 547.452881,575.897888 
	C546.250671,580.334106 542.454468,582.320557 537.836487,582.480957 
	C536.011780,582.544312 534.411865,582.240417 534.166199,580.058655 
	C533.970947,578.324280 534.166321,576.380920 536.210938,576.053101 
	C540.850220,575.309387 540.812439,572.009033 540.796143,568.547485 
	C540.769409,562.881714 540.759705,557.215393 540.810913,551.549805 
	C540.866028,545.452881 541.193970,545.204529 547.903625,545.890442 
	C548.923828,550.186523 548.254639,554.662903 548.352722,559.074951 
	C548.418152,562.020813 549.107544,563.776978 552.554810,563.806152 
	C555.924255,563.834717 556.799927,562.331787 556.848755,559.251160 
	C556.916870,554.954224 556.113159,550.597595 557.767090,546.075317 
z"/>
<path fill="#000000" opacity="1.000000" stroke="none" 
	d="
M482.816498,579.749390 
	C481.657654,576.989197 480.930847,574.167542 482.302338,572.124084 
	C485.208038,567.794678 484.843445,563.458862 484.499573,558.586365 
	C483.911102,550.248596 491.381836,544.468872 500.285675,545.556274 
	C502.210846,545.791443 504.686249,545.646484 504.180084,548.744568 
	C503.797180,551.088074 502.684387,552.433289 499.808929,552.405334 
	C494.217194,552.350769 491.956940,554.626526 492.151672,559.176086 
	C492.279144,562.155884 493.520905,563.898682 496.728729,563.781494 
	C497.893158,563.738953 499.060913,563.791809 500.227173,563.795959 
	C502.793457,563.805176 505.399292,563.613953 505.299774,567.467712 
	C505.201019,571.290833 502.480316,570.945923 500.000580,571.040833 
	C498.003479,571.117432 496.001343,571.068970 494.004944,571.156189 
	C491.592316,571.261658 489.689575,572.247986 489.488922,574.876465 
	C489.287689,577.513062 491.208191,578.708374 493.387451,579.376221 
	C495.348663,579.977295 497.349152,579.510315 499.328949,579.207825 
	C501.390747,578.892883 502.893829,579.362183 503.307007,581.795105 
	C503.735260,584.316650 502.754669,585.674927 500.305450,585.922180 
	C493.671875,586.591919 487.185333,586.731750 482.816498,579.749390 
z"/>
<path fill="#000000" opacity="1.000000" stroke="none" 
	d="
M490.163696,597.028198 
	C500.201538,597.054626 500.199219,597.054626 500.200684,606.490479 
	C500.201965,614.976807 500.240753,623.463379 500.189240,631.949402 
	C500.177673,633.854126 500.608307,636.426208 497.625763,636.418518 
	C494.785187,636.411194 494.907166,633.950562 494.895996,631.978027 
	C494.848938,623.658447 494.892731,615.338257 494.868927,607.018433 
	C494.862244,604.675476 495.096375,602.123108 491.520416,602.160400 
	C487.887970,602.198303 488.324829,604.866455 488.310760,607.132751 
	C488.262238,614.953186 488.384949,622.775818 488.233246,630.593628 
	C488.190643,632.789124 489.481628,636.525757 485.581512,636.324280 
	C482.098145,636.144287 483.110748,632.565369 483.070892,630.258484 
	C482.953461,623.457214 483.028992,616.652649 483.028992,609.695923 
	C480.822388,609.758179 479.560028,612.939148 477.473419,610.802185 
	C475.468414,608.748779 477.371704,607.053650 478.350494,605.499634 
	C481.025970,601.251831 482.924316,595.816345 490.163696,597.028198 
z"/>
<path fill="#000000" opacity="1.000000" stroke="none" 
	d="
M344.864044,626.282471 
	C343.696045,623.493835 345.810394,622.886047 347.224457,621.875183 
	C349.475647,620.265869 352.174835,619.246399 354.357208,616.588989 
	C351.507965,614.733337 348.874786,613.094360 346.327606,611.331116 
	C344.782074,610.261230 342.917450,608.663635 345.311829,607.085022 
	C350.791595,603.472229 356.543549,600.272400 363.695587,596.003052 
	C364.058655,610.425537 364.215546,623.291138 363.554779,637.663452 
	C356.587677,633.481079 350.829620,630.024536 344.864044,626.282471 
M357.616852,605.831848 
	C355.506561,606.267944 353.498260,606.849548 352.624573,609.277771 
	C354.037567,610.984802 355.574249,612.280518 357.924225,612.395142 
	C359.088806,610.201538 359.013794,608.183472 357.616852,605.831848 
M356.104950,621.991455 
	C354.829620,622.882324 352.939362,623.156433 352.804352,625.197571 
	C355.281311,627.325928 355.281311,627.325928 358.173584,627.901794 
	C359.159058,622.649048 359.159058,622.649048 356.104950,621.991455 
z"/>
<path fill="#000000" opacity="1.000000" stroke="none" 
	d="
M536.944153,602.831055 
	C535.074280,598.567078 536.332031,596.873474 540.570862,597.065796 
	C543.560242,597.201477 546.562012,597.039368 549.557617,597.068970 
	C552.182373,597.094849 553.553894,598.482178 552.230408,600.884705 
	C546.174316,611.878235 546.921814,622.734192 552.390503,633.630676 
	C552.660095,634.167786 552.547668,634.896667 552.663757,636.030884 
	C547.110901,636.030884 541.780823,636.030884 535.115906,636.030884 
	C539.532227,625.012817 544.241089,614.226746 536.944153,602.831055 
M545.446228,628.166748 
	C544.802063,627.159302 545.350952,625.644958 543.908752,624.676331 
	C543.512451,626.064392 543.162415,627.276428 542.820740,628.490906 
	C542.464172,629.758362 541.945679,631.300659 543.881470,631.511047 
	C545.733887,631.712463 545.790405,630.217102 545.446228,628.166748 
z"/>
<path fill="#000000" opacity="1.000000" stroke="none" 
	d="
M411.233459,622.982666 
	C411.233032,626.304932 411.290924,629.132263 411.210876,631.955627 
	C411.156647,633.868347 411.629028,636.493896 408.733002,636.512939 
	C405.603851,636.533630 405.917816,633.807251 405.911438,631.686829 
	C405.890045,624.539856 405.941986,617.392761 405.956421,610.245667 
	C405.959442,608.750061 405.898041,607.254211 405.908569,605.758789 
	C405.925720,603.313904 404.866119,602.071716 402.291870,602.162903 
	C399.823059,602.250427 399.271851,603.728394 399.274292,605.805725 
	C399.283447,613.617676 399.268738,621.429626 399.263153,629.241577 
	C399.262207,630.571167 399.275116,631.900940 399.258667,633.230286 
	C399.238983,634.822693 398.983337,636.351624 396.976074,636.440186 
	C394.712006,636.540100 394.147034,634.814819 394.160431,633.101929 
	C394.246277,622.147400 394.439148,611.193848 394.603424,600.239990 
	C394.608368,599.910095 394.565796,599.479370 394.746643,599.266968 
	C398.459808,594.905518 403.379822,597.697083 407.730560,597.210022 
	C410.548950,596.894409 411.232513,599.099243 411.225555,601.543274 
	C411.205658,608.524170 411.227539,615.505127 411.233459,622.982666 
z"/>
<path fill="#000000" opacity="1.000000" stroke="none" 
	d="
M572.674927,619.997253 
	C572.671753,615.177795 572.649475,610.856506 572.673462,606.535583 
	C572.686279,604.220642 572.567017,602.166931 569.397339,602.130371 
	C566.358521,602.095276 565.302307,603.578125 565.321472,606.436523 
	C565.378235,614.912170 565.367859,623.388672 565.300293,631.864136 
	C565.285645,633.707581 565.980713,636.369812 562.867126,636.305725 
	C560.109924,636.249023 560.735718,633.770203 560.726135,632.091370 
	C560.668335,621.953735 560.776001,611.814758 560.668823,601.677917 
	C560.635681,598.544128 561.772522,597.099609 564.972778,597.068542 
	C580.268860,596.920044 577.031982,596.194580 577.268494,608.544983 
	C577.421265,616.519470 577.320862,624.499512 577.271973,632.476624 
	C577.262329,634.049866 577.664429,636.154358 575.231628,636.315369 
	C572.415405,636.501709 572.724731,634.242859 572.701233,632.461609 
	C572.648560,628.473511 572.678650,624.484314 572.674927,619.997253 
z"/>
<path fill="#000000" opacity="1.000000" stroke="none" 
	d="
M454.885284,614.208191 
	C457.264862,620.939026 455.916412,627.596008 456.103821,634.182556 
	C456.148865,635.764648 455.033966,636.597717 453.465454,636.495178 
	C451.742676,636.382629 451.301666,635.003235 451.278656,633.642090 
	C451.214233,629.827454 451.218994,626.007446 451.356537,622.195312 
	C451.439453,619.896851 451.143402,618.318604 448.267334,618.265869 
	C445.537659,618.215820 444.242157,619.151917 444.309418,621.993469 
	C444.396149,625.655579 444.302002,629.322327 444.269836,632.986938 
	C444.254272,634.761536 444.025970,636.474243 441.672150,636.396545 
	C439.665833,636.330383 439.292847,634.759155 439.287384,633.206848 
	C439.271637,628.723816 439.328156,624.239258 439.441315,619.757446 
	C439.514221,616.868164 438.866608,613.485718 443.552582,613.457031 
	C444.632690,613.450439 445.052979,612.237122 445.078583,611.177124 
	C445.107819,609.963989 444.272980,609.602966 443.244324,609.210449 
	C439.902863,607.935547 437.890839,602.055908 439.539520,598.842896 
	C440.069427,597.810181 440.853943,597.384460 441.928375,597.427612 
	C443.296478,597.482544 444.211151,598.284241 444.209106,599.597534 
	C444.204498,602.562805 444.691986,604.616882 448.455536,604.831543 
	C450.942841,604.973389 450.433044,607.629456 450.263062,609.322021 
	C449.931122,612.627502 451.480804,613.903259 454.885284,614.208191 
z"/>
<path fill="#000000" opacity="1.000000" stroke="none" 
	d="
M683.561890,602.564331 
	C683.962952,603.329468 684.091919,603.860046 684.414246,604.215149 
	C694.346130,615.158447 687.344116,624.717224 681.920471,634.365906 
	C680.320740,637.211975 678.717285,636.810730 677.313354,634.071533 
	C674.884583,629.332581 672.466919,624.585999 669.925842,619.907227 
	C668.757568,617.756226 668.959351,615.849182 670.084229,613.782288 
	C672.153198,609.980591 674.068604,606.095642 676.105591,602.276062 
	C677.009094,600.581909 677.080261,597.888855 679.455078,597.709412 
	C682.303284,597.494141 682.176025,600.610474 683.561890,602.564331 
M682.693665,622.108337 
	C685.307373,616.174622 684.461548,612.370056 679.423462,607.398926 
	C673.369995,616.719727 673.506226,620.376465 680.259338,626.726074 
	C680.978149,625.374817 681.677002,624.061035 682.693665,622.108337 
z"/>
<path fill="#000000" opacity="1.000000" stroke="none" 
	d="
M459.454498,569.168762 
	C459.210480,558.963196 459.137329,549.156067 459.054626,539.348877 
	C459.033325,536.823792 459.884125,535.156311 462.775513,535.230896 
	C465.554260,535.302612 467.129669,536.449036 467.112549,539.438416 
	C467.060211,548.586487 467.207458,557.738098 466.990936,566.881592 
	C466.888550,571.207275 464.419708,571.985535 459.454498,569.168762 
z"/>
<path fill="#000000" opacity="1.000000" stroke="none" 
	d="
M639.361877,605.579956 
	C632.352478,613.081543 634.446533,622.080261 634.245422,630.606567 
	C634.221985,631.601196 634.213867,632.596252 634.186951,633.590759 
	C634.140442,635.306946 633.433105,636.554932 631.565613,636.524841 
	C629.665466,636.494141 629.054749,635.098877 629.038147,633.464050 
	C628.979187,627.659363 628.968567,621.854126 628.966553,616.049072 
	C628.965820,613.863281 628.896423,611.843994 626.915405,610.243347 
	C623.604065,607.567871 623.075378,604.107056 625.155823,600.464355 
	C626.904846,597.401978 629.833252,596.158752 633.224548,596.908691 
	C637.520264,597.858704 639.674011,600.711792 639.361877,605.579956 
M629.285522,604.488708 
	C630.187683,606.957581 631.740295,607.508179 633.717224,605.732849 
	C634.902100,604.668762 634.688049,603.276367 633.437500,602.357300 
	C631.458618,600.902954 630.120178,601.733337 629.285522,604.488708 
z"/>
<path fill="#000000" opacity="1.000000" stroke="none" 
	d="
M599.941650,616.890015 
	C600.227600,615.387268 600.182312,613.826721 600.915283,613.242371 
	C605.104065,609.902954 605.256104,605.406616 605.065552,600.679993 
	C605.003235,599.133423 605.459534,597.527039 607.410217,597.435913 
	C609.643677,597.331665 610.192383,598.979980 610.159424,600.781494 
	C610.076782,605.289734 610.162598,609.402466 614.181091,612.874451 
	C616.492004,614.871033 616.261414,619.011597 613.846252,621.058716 
	C610.238770,624.116577 610.093323,627.735168 610.170715,631.783386 
	C610.206421,633.655334 610.754333,636.292480 607.821594,636.432251 
	C604.513794,636.590027 604.538147,633.624817 605.060852,631.753418 
	C606.781433,625.594116 601.249878,622.227966 599.941650,616.890015 
M607.602783,619.269531 
	C609.689026,618.933838 611.100525,617.906677 610.146545,615.666260 
	C609.472107,614.082275 607.763428,613.718628 606.437256,614.760315 
	C604.497681,616.283813 605.176208,617.834473 607.602783,619.269531 
z"/>
<path fill="#000000" opacity="1.000000" stroke="none" 
	d="
M507.725677,615.340576 
	C510.292389,608.626038 514.470032,606.383911 521.578918,607.789368 
	C526.158752,608.694885 528.837585,611.634155 529.228149,616.315063 
	C529.723206,622.246826 525.326660,626.497131 518.599304,626.806763 
	C511.915070,627.114502 507.862640,623.015991 507.725677,615.340576 
M522.204773,620.817383 
	C525.642395,618.144836 525.213745,615.688904 521.428894,612.311279 
	C521.372559,615.896606 519.537354,618.364746 522.204773,620.817383 
M513.890808,620.291504 
	C517.472717,618.580627 515.168335,615.811462 515.601685,612.737732 
	C512.184570,614.967957 511.400116,617.084351 513.890808,620.291504 
z"/>
<path fill="#000000" opacity="1.000000" stroke="none" 
	d="
M306.686584,628.848877 
	C306.687286,625.048828 306.581085,621.724060 306.719269,618.409607 
	C306.869019,614.817322 306.483276,611.815063 303.316345,609.169373 
	C300.042694,606.434509 300.344604,602.666504 303.126160,599.417908 
	C305.871948,596.211182 310.594177,595.828125 313.885986,598.517700 
	C317.208832,601.232727 318.428009,605.331238 315.381348,608.067932 
	C310.589508,612.372253 311.348907,617.439148 311.321655,622.634460 
	C311.304260,625.954407 311.386566,629.275391 311.329620,632.594299 
	C311.301910,634.207397 311.518494,636.202759 309.100311,636.311157 
	C306.623108,636.422180 306.776703,634.467590 306.708191,632.814575 
	C306.660065,631.654358 306.691498,630.490845 306.686584,628.848877 
M311.385834,605.220032 
	C311.761414,602.547424 310.383911,601.500793 307.996735,602.076599 
	C306.602905,602.412781 305.911865,603.913757 306.625916,605.225830 
	C307.701263,607.201843 309.340546,607.329773 311.385834,605.220032 
z"/>
<path fill="#000000" opacity="1.000000" stroke="none" 
	d="
M338.218384,619.995483 
	C338.219360,624.642944 338.247345,628.791992 338.207916,632.940430 
	C338.191528,634.667114 337.986053,636.458496 335.643280,636.388428 
	C333.416229,636.321899 333.042908,634.572021 333.031525,632.847473 
	C332.976746,624.550171 332.836578,616.248413 333.050079,607.956543 
	C333.155701,603.855042 332.107452,601.600159 327.534119,601.999695 
	C325.796509,602.151428 323.356262,602.176453 323.279022,599.708679 
	C323.187439,596.782104 325.887848,597.384033 327.734924,597.086548 
	C328.059296,597.034241 328.397614,597.070557 328.729401,597.061768 
	C338.195648,596.811890 338.200256,596.811829 338.220825,606.054260 
	C338.230774,610.535095 338.219757,615.015930 338.218384,619.995483 
z"/>
<path fill="#000000" opacity="1.000000" stroke="none" 
	d="
M372.906158,636.696289 
	C369.454712,634.766296 371.225159,633.240417 372.988953,631.750061 
	C384.151215,622.318237 384.149567,611.242432 372.932526,602.150146 
	C371.519806,601.005066 370.252960,599.688171 371.399658,597.989746 
	C372.695648,596.070190 374.468933,597.451904 375.823181,598.203674 
	C383.733154,602.594910 386.646881,609.864746 386.053894,618.338928 
	C385.467651,626.716858 382.273163,633.883301 372.906158,636.696289 
z"/>
<path fill="#000000" opacity="1.000000" stroke="none" 
	d="
M656.055054,621.846008 
	C657.689514,613.601379 655.960388,606.961609 648.918091,602.343384 
	C647.436829,601.372009 646.082092,600.162720 647.127197,598.289490 
	C648.295044,596.196533 650.070740,597.346252 651.471863,598.085388 
	C659.176147,602.149475 661.835449,609.321899 661.780884,617.259155 
	C661.727356,625.032593 658.832947,631.937866 651.374023,635.878296 
	C649.993530,636.607666 648.183411,637.782166 647.075500,635.599548 
	C646.145691,633.767822 647.324951,632.467102 648.893372,631.530518 
	C652.494690,629.380005 654.825989,626.268433 656.055054,621.846008 
z"/>
<path fill="#000000" opacity="1.000000" stroke="none" 
	d="
M426.704376,622.985046 
	C426.704163,617.029419 426.704163,611.570435 426.704163,606.332642 
	C424.322540,605.262878 422.958405,606.485474 421.512085,607.156555 
	C420.019318,607.849060 418.653259,608.299377 417.722778,606.424316 
	C416.931671,604.830139 417.878296,603.860962 419.115906,603.179321 
	C422.820435,601.138977 426.256561,598.516357 430.542999,597.170227 
	C432.004486,601.097473 431.279358,604.608704 431.329590,608.034668 
	C431.449249,616.195068 431.395966,624.358215 431.369995,632.520142 
	C431.364807,634.151184 431.579407,636.203491 429.243195,636.362366 
	C426.428955,636.553833 426.760071,634.243286 426.718292,632.476257 
	C426.647430,629.479675 426.702484,626.480042 426.704376,622.985046 
z"/>
<path fill="#000000" opacity="1.000000" stroke="none" 
	d="
M562.142395,533.392944 
	C566.045898,533.626648 566.783081,536.104370 566.642273,538.946838 
	C566.477173,542.279541 563.834351,542.097717 561.513367,542.049683 
	C559.188782,542.001587 556.633789,542.679016 554.176086,540.169250 
	C557.833740,538.681091 557.658936,533.913452 562.142395,533.392944 
z"/>
<path fill="#000000" opacity="1.000000" stroke="none" 
	d="
M638.796021,581.079346 
	C636.418274,581.142395 634.262573,581.537598 633.433777,578.980042 
	C633.005493,577.658142 633.011902,576.285217 633.907532,575.195312 
	C635.122559,573.716614 636.897583,573.823730 638.508301,574.214722 
	C641.614075,574.968506 641.867737,577.747620 638.796021,581.079346 
z"/>
<path fill="#000000" opacity="1.000000" stroke="none" 
	d="
M559.359131,574.226440 
	C561.784424,573.980469 563.894836,573.728333 564.729858,576.251770 
	C565.163879,577.563110 565.082825,578.937195 564.177856,580.050720 
	C562.942383,581.571167 561.140869,581.385742 559.545532,581.072693 
	C556.350769,580.445801 556.146423,577.700195 559.359131,574.226440 
z"/>
<path fill="#000000" opacity="1.000000" stroke="none" 
	d="
M360.731323,577.951172 
	C359.948730,581.958740 357.188354,581.341064 354.801361,580.926147 
	C353.007416,580.614319 352.849487,578.932617 352.904144,577.355103 
	C352.973389,575.357422 354.052032,574.356995 355.974426,574.144348 
	C358.583954,573.855835 360.673706,574.293457 360.731323,577.951172 
z"/>
<path fill="#000000" opacity="1.000000" stroke="none" 
	d="
M497.643372,541.981934 
	C495.282501,542.154053 493.153839,542.567627 492.276825,540.087646 
	C491.825745,538.812195 491.817230,537.401611 492.723206,536.337585 
	C493.912506,534.940735 495.642853,534.906311 497.274292,535.261963 
	C500.488678,535.962646 500.761047,538.486816 497.643372,541.981934 
z"/>
<path fill="#000000" opacity="1.000000" stroke="none" 
	d="
M429.054993,580.217041 
	C428.079407,577.932617 427.743347,575.852051 429.846008,574.623901 
	C431.459656,573.681396 433.430145,573.672363 435.002686,574.958984 
	C436.335785,576.049683 436.372192,577.741211 435.734192,579.091858 
	C434.291077,582.146790 431.747009,581.298706 429.054993,580.217041 
z"/>
<path fill="#000000" opacity="1.000000" stroke="none" 
	d="
M612.083008,535.151978 
	C615.143860,535.335205 616.294250,536.782532 616.023560,539.403137 
	C615.774597,541.813171 614.075806,542.155212 612.112000,542.142456 
	C610.322083,542.130798 608.808044,541.775757 608.572449,539.605347 
	C608.312195,537.208313 608.706177,535.275696 612.083008,535.151978 
z"/>
<path fill="#000000" opacity="1.000000" stroke="none" 
	d="
M627.250854,574.125793 
	C629.986938,573.903076 632.062744,574.125732 632.199829,577.158691 
	C632.278625,578.901733 632.119934,580.609680 630.001221,580.982300 
	C628.242188,581.291626 626.093811,581.734192 625.225830,579.626587 
	C624.402649,577.627808 624.142151,575.368042 627.250854,574.125793 
z"/>
<path fill="#000000" opacity="1.000000" stroke="none" 
	d="
M603.907104,542.109253 
	C600.744629,542.175781 599.609253,540.805908 599.767273,538.123230 
	C599.872803,536.330383 600.759460,535.342468 602.492554,535.255371 
	C604.306580,535.164185 606.355652,535.045288 606.967834,537.316956 
	C607.581238,539.593384 607.316528,541.663391 603.907104,542.109253 
z"/>
<path fill="#000000" opacity="1.000000" stroke="none" 
	d="
M674.868652,537.379272 
	C677.560913,534.526917 680.254333,533.930054 681.984436,537.624634 
	C682.824951,539.419495 682.343750,541.681152 679.544495,542.048401 
	C676.327820,542.470398 674.267212,541.567017 674.868652,537.379272 
z"/>
<path fill="#000000" opacity="1.000000" stroke="none" 
	d="
M542.488708,541.795349 
	C540.400635,539.730835 540.203247,537.662292 542.059143,535.922791 
	C543.355347,534.707886 545.202698,534.950623 546.785767,535.639343 
	C548.785400,536.509460 548.541992,538.394470 548.172607,539.950745 
	C547.447388,543.005981 544.939636,542.052307 542.488708,541.795349 
z"/>
<path fill="#000000" opacity="1.000000" stroke="none" 
	d="
M323.386871,586.172852 
	C325.770264,585.940552 328.240234,584.710449 329.262634,587.605347 
	C329.690033,588.815491 329.714844,590.397400 328.757721,591.411621 
	C327.485443,592.759705 325.675201,592.405151 324.059357,592.128479 
	C322.441162,591.851440 322.006378,590.498413 322.114655,589.111877 
	C322.187347,588.181030 322.705566,587.284912 323.386871,586.172852 
z"/>
<path fill="#000000" opacity="1.000000" stroke="none" 
	d="
M314.447449,591.514404 
	C313.626129,589.089478 312.791321,586.753662 315.824768,585.940002 
	C317.366089,585.526611 319.217194,585.286682 320.363831,586.946960 
	C321.166473,588.109314 321.234100,589.545837 320.519958,590.736938 
	C319.069489,593.156128 316.849579,592.298279 314.447449,591.514404 
z"/>
</svg>